<svg width="175" height="175" viewBox="0 0 175 175" fill="none" xmlns="http://www.w3.org/2000/svg">
<path d="M168.5 87.5C168.5 132.235 132.235 168.5 87.5 168.5C42.7649 168.5 6.5 132.235 6.5 87.5C6.5 42.7649 42.7649 6.5 87.5 6.5C132.235 6.5 168.5 42.7649 168.5 87.5Z" fill="white" stroke="#C50000" stroke-width="13"/>
<path d="M54.952 66.32H112.168V80.272H54.952V66.32ZM33.064 98.064H145.192V112.656H33.064V98.064ZM80.552 89.872H97.064V131.984C97.064 140.176 95.144 144.4 88.872 146.704C82.728 149.008 74.536 149.264 63.912 149.264C62.888 144.656 59.816 137.744 57.256 133.52C65.064 133.904 74.792 134.032 77.352 133.904C79.912 133.776 80.552 133.264 80.552 131.472V89.872ZM107.432 66.32H111.528L114.984 65.552L124.84 73.232C116.52 82.704 104.616 93.328 92.2 99.728C90.408 97.168 86.312 93.2 84.136 91.152C93.224 85.776 102.952 75.92 107.432 69.264V66.32ZM80.552 29.328H96.936V52.624H80.552V29.328ZM33.576 41.616H144.168V74.896H128.296V56.08H48.68V74.896H33.576V41.616Z" fill="#C50000"/>
</svg>
