<svg width="16" height="16" viewBox="0 0 16 16" fill="none" xmlns="http://www.w3.org/2000/svg">
<path d="M11.7166 5.23204C11.858 5.08339 12.049 5 12.248 5C12.4471 5 12.6381 5.08339 12.7795 5.23204C12.8493 5.30503 12.9048 5.39204 12.9427 5.48799C12.9805 5.58395 13 5.68694 13 5.79097C13 5.895 12.9805 5.99799 12.9427 6.09395C12.9048 6.18991 12.8493 6.27691 12.7795 6.34991L8.53202 10.7683C8.39026 10.9168 8.19913 11 8 11C7.80087 11 7.60974 10.9168 7.46798 10.7683L3.22049 6.34991C3.15065 6.27691 3.0952 6.18991 3.05735 6.09395C3.01949 5.99799 3 5.895 3 5.79097C3 5.68694 3.01949 5.58395 3.05735 5.48799C3.0952 5.39204 3.15065 5.30503 3.22049 5.23204C3.36192 5.08339 3.55292 5 3.75197 5C3.95101 5 4.14201 5.08339 4.28345 5.23204L8.00163 8.8556L11.7166 5.23204Z" fill="#333333"/>
</svg>
